<svg width="1000" height="700" viewBox="0 0 1000 700" xmlns="http://www.w3.org/2000/svg">
  <defs>
    <linearGradient id="bgGradient" x1="0%" y1="0%" x2="100%" y2="100%">
      <stop offset="0%" style="stop-color:#f8f9fa;stop-opacity:1" />
      <stop offset="100%" style="stop-color:#e9ecef;stop-opacity:1" />
    </linearGradient>
  </defs>
  
  <!-- Background -->
  <rect width="1000" height="700" fill="url(#bgGradient)"/>
  
  <!-- Top Navigation Bar -->
  <rect x="0" y="0" width="1000" height="60" fill="#28a745"/>
  <text x="20" y="40" fill="white" font-family="Arial, sans-serif" font-size="18" font-weight="bold">RIS - Patient Scheduling</text>
  
  <!-- Calendar Header -->
  <rect x="20" y="80" width="960" height="40" fill="white" stroke="#dee2e6" stroke-width="1" rx="4"/>
  <text x="30" y="105" fill="#343a40" font-family="Arial, sans-serif" font-size="16" font-weight="bold">June 2025 - Week View</text>
  
  <!-- Navigation Buttons -->
  <rect x="800" y="85" width="30" height="30" fill="#0066cc" stroke="#0056b3" stroke-width="1" rx="2"/>
  <text x="815" y="105" text-anchor="middle" fill="white" font-family="Arial, sans-serif" font-size="16" font-weight="bold">&lt;</text>
  
  <rect x="840" y="85" width="60" height="30" fill="#6c757d" stroke="#545b62" stroke-width="1" rx="2"/>
  <text x="870" y="105" text-anchor="middle" fill="white" font-family="Arial, sans-serif" font-size="12">Today</text>
  
  <rect x="910" y="85" width="30" height="30" fill="#0066cc" stroke="#0056b3" stroke-width="1" rx="2"/>
  <text x="925" y="105" text-anchor="middle" fill="white" font-family="Arial, sans-serif" font-size="16" font-weight="bold">&gt;</text>
  
  <!-- Calendar Grid -->
  <rect x="20" y="130" width="960" height="540" fill="white" stroke="#dee2e6" stroke-width="2" rx="4"/>
  
  <!-- Day Headers -->
  <rect x="20" y="130" width="960" height="40" fill="#f8f9fa" stroke="#dee2e6" stroke-width="1"/>
  
  <!-- Time Column -->
  <rect x="20" y="130" width="80" height="580" fill="#f1f3f4" stroke="#dee2e6" stroke-width="1"/>
  <text x="60" y="155" text-anchor="middle" fill="#495057" font-family="Arial, sans-serif" font-size="12" font-weight="bold">Time</text>
  
  <!-- Day Columns -->
  <rect x="100" y="130" width="146" height="40" fill="#f8f9fa" stroke="#dee2e6" stroke-width="1"/>
  <text x="173" y="155" text-anchor="middle" fill="#495057" font-family="Arial, sans-serif" font-size="12" font-weight="bold">Mon 9</text>
  
  <rect x="246" y="130" width="146" height="40" fill="#f8f9fa" stroke="#dee2e6" stroke-width="1"/>
  <text x="319" y="155" text-anchor="middle" fill="#495057" font-family="Arial, sans-serif" font-size="12" font-weight="bold">Tue 10</text>
  
  <rect x="392" y="130" width="146" height="40" fill="#e3f2fd" stroke="#2196f3" stroke-width="2"/>
  <text x="465" y="155" text-anchor="middle" fill="#1976d2" font-family="Arial, sans-serif" font-size="12" font-weight="bold">Wed 11 (Today)</text>
  
  <rect x="538" y="130" width="146" height="40" fill="#f8f9fa" stroke="#dee2e6" stroke-width="1"/>
  <text x="611" y="155" text-anchor="middle" fill="#495057" font-family="Arial, sans-serif" font-size="12" font-weight="bold">Thu 12</text>
  
  <rect x="684" y="130" width="146" height="40" fill="#f8f9fa" stroke="#dee2e6" stroke-width="1"/>
  <text x="757" y="155" text-anchor="middle" fill="#495057" font-family="Arial, sans-serif" font-size="12" font-weight="bold">Fri 13</text>
  
  <rect x="830" y="130" width="150" height="40" fill="#f8f9fa" stroke="#dee2e6" stroke-width="1"/>
  <text x="905" y="155" text-anchor="middle" fill="#495057" font-family="Arial, sans-serif" font-size="12" font-weight="bold">Sat 14</text>
  
  <!-- Time Slots -->
  <text x="60" y="195" text-anchor="middle" fill="#6c757d" font-family="Arial, sans-serif" font-size="11">08:00</text>
  <text x="60" y="235" text-anchor="middle" fill="#6c757d" font-family="Arial, sans-serif" font-size="11">09:00</text>
  <text x="60" y="275" text-anchor="middle" fill="#6c757d" font-family="Arial, sans-serif" font-size="11">10:00</text>
  <text x="60" y="315" text-anchor="middle" fill="#6c757d" font-family="Arial, sans-serif" font-size="11">11:00</text>
  <text x="60" y="355" text-anchor="middle" fill="#6c757d" font-family="Arial, sans-serif" font-size="11">12:00</text>
  <text x="60" y="395" text-anchor="middle" fill="#6c757d" font-family="Arial, sans-serif" font-size="11">13:00</text>
  <text x="60" y="435" text-anchor="middle" fill="#6c757d" font-family="Arial, sans-serif" font-size="11">14:00</text>
  <text x="60" y="475" text-anchor="middle" fill="#6c757d" font-family="Arial, sans-serif" font-size="11">15:00</text>
  <text x="60" y="515" text-anchor="middle" fill="#6c757d" font-family="Arial, sans-serif" font-size="11">16:00</text>
  <text x="60" y="555" text-anchor="middle" fill="#6c757d" font-family="Arial, sans-serif" font-size="11">17:00</text>
  
  <!-- Grid Lines -->
  <line x1="100" y1="170" x2="980" y2="170" stroke="#dee2e6" stroke-width="1"/>
  <line x1="100" y1="210" x2="980" y2="210" stroke="#dee2e6" stroke-width="1"/>
  <line x1="100" y1="250" x2="980" y2="250" stroke="#dee2e6" stroke-width="1"/>
  <line x1="100" y1="290" x2="980" y2="290" stroke="#dee2e6" stroke-width="1"/>
  <line x1="100" y1="330" x2="980" y2="330" stroke="#dee2e6" stroke-width="1"/>
  <line x1="100" y1="370" x2="980" y2="370" stroke="#dee2e6" stroke-width="1"/>
  <line x1="100" y1="410" x2="980" y2="410" stroke="#dee2e6" stroke-width="1"/>
  <line x1="100" y1="450" x2="980" y2="450" stroke="#dee2e6" stroke-width="1"/>
  <line x1="100" y1="490" x2="980" y2="490" stroke="#dee2e6" stroke-width="1"/>
  <line x1="100" y1="530" x2="980" y2="530" stroke="#dee2e6" stroke-width="1"/>
  
  <line x1="246" y1="170" x2="246" y2="670" stroke="#dee2e6" stroke-width="1"/>
  <line x1="392" y1="170" x2="392" y2="670" stroke="#dee2e6" stroke-width="1"/>
  <line x1="538" y1="170" x2="538" y2="670" stroke="#dee2e6" stroke-width="1"/>
  <line x1="684" y1="170" x2="684" y2="670" stroke="#dee2e6" stroke-width="1"/>
  <line x1="830" y1="170" x2="830" y2="670" stroke="#dee2e6" stroke-width="1"/>
  
  <!-- Scheduled Appointments -->
  
  <!-- Monday -->
  <rect x="105" y="175" width="136" height="30" fill="#e3f2fd" stroke="#1976d2" stroke-width="1" rx="2"/>
  <text x="110" y="190" fill="#1976d2" font-family="Arial, sans-serif" font-size="9" font-weight="bold">08:00 - Smith, J.</text>
  <text x="110" y="200" fill="#1976d2" font-family="Arial, sans-serif" font-size="8">Chest X-Ray</text>
  
  <rect x="105" y="255" width="136" height="30" fill="#fff3e0" stroke="#f57c00" stroke-width="1" rx="2"/>
  <text x="110" y="270" fill="#f57c00" font-family="Arial, sans-serif" font-size="9" font-weight="bold">10:30 - Davis, M.</text>
  <text x="110" y="280" fill="#f57c00" font-family="Arial, sans-serif" font-size="8">CT Abdomen</text>
  
  <!-- Tuesday -->
  <rect x="251" y="215" width="136" height="30" fill="#e8f5e8" stroke="#388e3c" stroke-width="1" rx="2"/>
  <text x="256" y="230" fill="#388e3c" font-family="Arial, sans-serif" font-size="9" font-weight="bold">09:15 - Wilson, K.</text>
  <text x="256" y="240" fill="#388e3c" font-family="Arial, sans-serif" font-size="8">MRI Brain</text>
  
  <rect x="251" y="375" width="136" height="30" fill="#fce4ec" stroke="#c2185b" stroke-width="1" rx="2"/>
  <text x="256" y="390" fill="#c2185b" font-family="Arial, sans-serif" font-size="9" font-weight="bold">13:00 - Brown, L.</text>
  <text x="256" y="400" fill="#c2185b" font-family="Arial, sans-serif" font-size="8">Mammography</text>
  
  <!-- Wednesday (Today) -->
  <rect x="397" y="175" width="136" height="50" fill="#ffebee" stroke="#d32f2f" stroke-width="2" rx="2"/>
  <text x="402" y="190" fill="#d32f2f" font-family="Arial, sans-serif" font-size="9" font-weight="bold">08:00 - Johnson, A.</text>
  <text x="402" y="200" fill="#d32f2f" font-family="Arial, sans-serif" font-size="8">CT Chest (URGENT)</text>
  <text x="402" y="210" fill="#d32f2f" font-family="Arial, sans-serif" font-size="8">Room 3</text>
  <text x="402" y="220" fill="#d32f2f" font-family="Arial, sans-serif" font-size="8">Tech: Williams</text>
  
  <rect x="397" y="295" width="136" height="30" fill="#e3f2fd" stroke="#1976d2" stroke-width="1" rx="2"/>
  <text x="402" y="310" fill="#1976d2" font-family="Arial, sans-serif" font-size="9" font-weight="bold">11:00 - Garcia, R.</text>
  <text x="402" y="320" fill="#1976d2" font-family="Arial, sans-serif" font-size="8">Ultrasound</text>
  
  <rect x="397" y="455" width="136" height="30" fill="#fff3e0" stroke="#f57c00" stroke-width="1" rx="2"/>
  <text x="402" y="470" fill="#f57c00" font-family="Arial, sans-serif" font-size="9" font-weight="bold">14:30 - Lee, S.</text>
  <text x="402" y="480" fill="#f57c00" font-family="Arial, sans-serif" font-size="8">MRI Knee</text>
  
  <!-- Thursday -->
  <rect x="543" y="335" width="136" height="30" fill="#e8f5e8" stroke="#388e3c" stroke-width="1" rx="2"/>
  <text x="548" y="350" fill="#388e3c" font-family="Arial, sans-serif" font-size="9" font-weight="bold">12:00 - Taylor, P.</text>
  <text x="548" y="360" fill="#388e3c" font-family="Arial, sans-serif" font-size="8">Bone Scan</text>
  
  <!-- Friday -->
  <rect x="689" y="215" width="136" height="30" fill="#e3f2fd" stroke="#1976d2" stroke-width="1" rx="2"/>
  <text x="694" y="230" fill="#1976d2" font-family="Arial, sans-serif" font-size="9" font-weight="bold">09:00 - Martinez, C.</text>
  <text x="694" y="240" fill="#1976d2" font-family="Arial, sans-serif" font-size="8">X-Ray Spine</text>
  
  <!-- Legend -->
  <rect x="20" y="680" width="960" height="20" fill="#f8f9fa" stroke="#dee2e6" stroke-width="1"/>
  <circle cx="35" cy="690" r="4" fill="#1976d2"/>
  <text x="45" y="694" fill="#495057" font-family="Arial, sans-serif" font-size="10">Scheduled</text>
  
  <circle cx="135" cy="690" r="4" fill="#388e3c"/>
  <text x="145" y="694" fill="#495057" font-family="Arial, sans-serif" font-size="10">Confirmed</text>
  
  <circle cx="235" cy="690" r="4" fill="#f57c00"/>
  <text x="245" y="694" fill="#495057" font-family="Arial, sans-serif" font-size="10">In Progress</text>
  
  <circle cx="335" cy="690" r="4" fill="#d32f2f"/>
  <text x="345" y="694" fill="#495057" font-family="Arial, sans-serif" font-size="10">Urgent</text>
  
  <circle cx="425" cy="690" r="4" fill="#c2185b"/>
  <text x="435" y="694" fill="#495057" font-family="Arial, sans-serif" font-size="10">Screening</text>
</svg>
